<!DOCTYPE svg PUBLIC "-//W3C//DTD SVG 1.1//EN" "http://www.w3.org/Graphics/SVG/1.1/DTD/svg11.dtd">
<!-- Uploaded to: SVG Repo, www.svgrepo.com, Transformed by: SVG Repo Mixer Tools -->
<svg width="800px" height="800px" viewBox="-51.2 -51.2 614.40 614.40" xmlns="http://www.w3.org/2000/svg" fill="#4682b4" stroke="#4682b4">
<g id="SVGRepo_bgCarrier" stroke-width="0">
<path transform="translate(-51.2, -51.2), scale(19.2)" d="M16,30.24391042866877C18.094561925611696,30.148765508364317,20.50089706676716,31.16655651817669,22.214906373468168,29.9589082611812C24.015001248239656,28.69060625754248,23.68084143566293,25.841154163996435,24.874825938704575,23.99092916764897C25.85865182289184,22.466370650901258,27.64416307139576,21.640787845417346,28.584229054129082,20.088863881592935C29.630971765279195,18.36083082090381,31.17198982047898,16.41161263501653,30.64784028878674,14.460449948153308C30.096370362856696,12.407586256893328,26.893681142175712,12.160562680682508,25.943604307181314,10.25905737653375C24.907265860957175,8.184906129176898,26.934063299099996,4.8894521662013934,25.134948093742317,3.4268225993304657C23.389232899891407,2.0076057252478927,20.754423836144305,4.145718251824251,18.505583268580725,4.2121575128297035C16.779729377512215,4.26314576819109,15.127770142447284,3.767518767063186,13.401173522813133,3.773482706116832C11.393602029991898,3.780417177025017,9.071132966293758,3.0480505671842026,7.4633426530180795,4.250299166356667C5.849744012318297,5.456891026868315,6.408570758384588,8.13937428449682,5.306717120207809,9.826230250831156C4.126425881324026,11.633168349812884,1.5022880998347325,12.35469649788727,0.8299294891110609,14.405561340026617C0.16961820544464445,16.41967876923868,1.053313899098741,18.62873766227269,1.766517894209228,20.624738682150042C2.469921047048475,22.593310675685473,3.664608461525251,24.300455370645572,4.953598341387304,25.94622472835323C6.300144289912416,27.665481097584916,7.493313457647364,29.74337196006592,9.528519119305656,30.53518403965751C11.563154139375314,31.326774106844397,13.81905070578022,30.342979472295156,16,30.24391042866877" fill="#f2f2f2" strokewidth="0"/>
</g>
<g id="SVGRepo_tracerCarrier" stroke-linecap="round" stroke-linejoin="round"/>
<g id="SVGRepo_iconCarrier">
<path fill="#4682b4" d="M87.49 27.99C58.7 27.99 35.5 51.17 35.5 80c0 28.8 23.2 52 52 52s52-23.2 52-52c0-28.83-23.2-52.01-52.01-52.01zM219.5 54.55c-2.6 4.13-4 9.58-4.5 15.32-20.8-.7-39.2-1.03-58.3-.73.8 6.29 1.1 12.15.4 18 19.8-.25 39.1 0 58.2.77.3 3.12.7 5.96 1.2 8.26-11.9 24.43-25.4 44.13-32.3 70.43 2.3 24.6 5.2 53.2 23.1 77.7 5 19.9 9.1 39.7 14.6 59.6 2.1-25.1 7.6-51.9 21.4-79.2-1.9-9.1-2.1-17.2-1.3-25.7-4.2-8.1-9.8-16.2-19.2-24 12.9-23.8 13.2-46.2 17.6-71.8l19.5-4.78c1.8-2.39 3.3-4.92 4.4-7.56 31 2.54 61.2 6.27 90.6 10.94.6-6.09 2-11.99 4.1-17.56-29.6-4.75-60-8.55-91.2-11.17 0-4.55-.4-9.28-1.1-14.13-17.1-2.57-31.6-6.06-47.2-4.39zm205 2.44c-28.8 0-52 23.18-52 52.01 0 28.8 23.2 52 52 52s52-23.2 52-52c0-28.83-23.2-52.01-52-52.01zm-135 108.11c-7.5 0-14.6 3.9-20.3 11.6-5.8 7.6-9.7 18.8-9.7 31.3 0 6.6 1.1 13.6 3 19.1 8.9-3.1 18.1-7.5 26.7-15 7.9 6.4 16.6 10.9 26.8 15 2.2-5.9 3.5-11.9 3.5-19.1 0-12.5-3.9-23.7-9.7-31.3-5.7-7.7-12.8-11.6-20.3-11.6zm-.3 58.9c-6.8 10.6-8.8 14.7-21.7 12.9 5.3 7.4 12.7 14.1 22 14 10.4-.1 17.2-6.5 21.8-13.8-11.2.8-16.9-3.1-22.1-13.1zm60.8 28.3c2.4 25.1 3.6 39.4 1.5 63.8 2.2 3.2 2.8 19.1 11.1 22.5-12.8 6.5-17.6 24.1-24.6 31-18.2 21.6-31.1 55.3-43.6 86.3 3.7 12.8 8.3 25.5 13.7 38.1H365c-5.6-27.2-13.6-54.7-22.2-82.1 3.4-5.4 3-4 6.5-23 14.9-10.2 47.2-27.3 52.6-49.6-5-19.9-11.7-32.8-23.5-49.9 2.8-24.2-16.2-30.8-28.4-37.1zm-100.3 3.4c-3.5 10.4-5.9 20.7-7.6 30.9l13.9-1.2c-3.2-9.7-4.9-20.1-6.3-29.7zm65.9 3.5c-7.4 6-16.4 9.7-26.1 9.7-7.4 0-14.3-2.1-20.4-5.7.5 2.4.9 4.8 1.5 7.2 1.9 8.5 4.7 16.8 8 22.4 3.2 5.5 6 7.5 8.9 7.7 3.1.2 6.6-1.5 10.9-6.7 4.4-5.2 8.7-13.2 12.2-21.4 1.9-4.5 3.6-9 5-13.2zm17.4 5c-2.8 7.9-5.3 14.6-8.6 21.5l9.8.5c-.2-7.3-.6-14.6-1.2-22zm-69.4 38.7l-23.7 2c-.6 7.7-.9 15.4-1.1 23l94.6-1.5c.7-7.3 1-14.7 1.1-22.1l-20.5-1.1c-7.6 8.6-18.5 15.7-27.7 15.3-10.3-.7-17.8-7.7-22.7-15.6zm65.6 41.5l-90.4 1.5c-.9 9.3 6.9 16.2 12.3 20.3l66.7-.2c7.2-8 8.6-11.2 11.4-21.6zM236 376.8c-14.4 39-29.7 77.9-41.2 117.2h53.1c6.7-12.3 12.8-24.9 18-37.8-.7-31.9-14.5-62.9-29.9-79.4zm70.3 7.3l-41.9.1c7.8 13.1 11.8 28.8 15 45.6l8.3-.8c6.1-15.2 10.6-30.7 18.6-44.9z"/>
</g>
</svg>