<!DOCTYPE svg PUBLIC "-//W3C//DTD SVG 1.1//EN" "http://www.w3.org/Graphics/SVG/1.1/DTD/svg11.dtd">
<!-- Uploaded to: SVG Repo, www.svgrepo.com, Transformed by: SVG Repo Mixer Tools -->
<svg width="800px" height="800px" viewBox="-10 -10 120.00 120.00" xmlns="http://www.w3.org/2000/svg" xmlns:xlink="http://www.w3.org/1999/xlink" aria-hidden="true" role="img" class="iconify iconify--gis" preserveAspectRatio="xMidYMid meet" fill="#4682b4" stroke="#4682b4">
<g id="SVGRepo_bgCarrier" stroke-width="0">
<path transform="translate(-10, -10), scale(3.75)" d="M16,30.322814943268895C18.111769780505433,29.401763677635582,18.42476381628983,26.31123149611797,20.374744372577457,25.084250294191513C22.0221788158656,24.047639397327487,24.616151398918497,25.333999407912593,26.039116135428635,24.0059279659043C27.414081473240515,22.72265498517135,27.17214011452433,20.460974702104142,27.335872684473486,18.587338966748625C27.48581499898858,16.871508824922643,27.526558924896612,15.124642828917729,26.957285361786806,13.49907111914145C26.412172123585556,11.942489686123867,24.838550863691317,10.998273386556015,24.152894669316428,9.498283458858943C23.215628586728087,7.447853965202366,23.928179236076033,4.566302599655236,22.207942829180595,3.1090738865086927C20.60341670021788,1.7498644564873336,18.056304034479304,2.1519246694697016,16,2.5918884077109396C14.074035222966076,3.0039649532103807,12.82255801441659,4.901291599632483,10.951850949604044,5.517410483766474C8.732325891482523,6.24841285599213,5.3254374517927054,4.520530380466002,4.100972960773815,6.510842582624932C2.7895191771379566,8.64255198480283,5.799408221238391,11.198970910098506,5.918464212337959,13.698955244635377C5.999413612864925,15.398762464234425,4.940075456881385,16.90352551831039,4.675959650575532,18.584638313486884C4.311133038577089,20.90678136895112,3.173128288552113,23.344484449967467,4.061141981926079,25.520921563059268C4.933001923625299,27.657767367004688,7.157722208111641,29.05380688236102,9.298889410859836,29.914999519147C11.401441946592886,30.760661062955887,13.922734760773777,31.228817006234056,16,30.322814943268895" fill="#f2f2f2" strokewidth="0"/>
</g>
<g id="SVGRepo_tracerCarrier" stroke-linecap="round" stroke-linejoin="round"/>
<g id="SVGRepo_iconCarrier">
<path d="M36.277 13.297c-6.698 0-12.185 5.471-12.185 12.15c0 2.588.825 4.994 2.224 6.971l8.473 11.494c1.187 1.55 1.978 1.256 2.965-.082l9.348-12.75a6.87 6.87 0 0 0 .464-1.074c.577-1.41.897-2.95.897-4.559c0-6.679-5.487-12.15-12.186-12.15zm0 5.693c3.607 0 6.477 2.86 6.477 6.457s-2.87 6.46-6.477 6.46s-6.476-2.863-6.476-6.46c0-3.596 2.87-6.457 6.476-6.457z" fill="#4682b4"/>
<path d="M37.18.178c-9.53 0-19.061 3.623-26.309 10.87c-14.495 14.496-14.495 38.123 0 52.618C24.44 77.234 45.97 78.032 60.557 66.193l3.576 3.577a3.956 5.958 45 0 0 .646 3.613L90.73 99.334a3.956 5.958 45 0 0 7.01-1.416a3.956 5.958 45 0 0 1.416-7.01l-25.95-25.951a3.956 5.958 45 0 0-3.616-.646l-3.576-3.577c11.839-14.587 11.043-36.117-2.526-49.685C56.241 3.8 46.71.178 37.18.178zm0 8.217c7.397 0 14.795 2.834 20.463 8.501a28.875 28.875 0 0 1 0 40.924a28.875 28.875 0 0 1-40.924 0a28.875 28.875 0 0 1 0-40.924c5.667-5.667 13.064-8.501 20.46-8.501z" fill="#4682b4"/>
<path d="M29.727 52.003L19.439 55.38a25.527 25.527 0 0 0 16.102 7.119z" fill="#4682b4"/>
<path d="M62.492 41.253l-25.476 8.36l6.705 12.1a25.637 25.637 0 0 0 9.828-5.054a25.543 25.543 0 0 0 8.943-15.406z" fill="#4682b4"/>
<path d="M11.674 34.38a25.53 25.53 0 0 0 2.94 14.65l9.52-3.123z" fill="#4682b4"/>
<path d="M60.002 25.146l-5.303 10.732l7.916-2.596a25.486 25.486 0 0 0-2.613-8.136z" fill="#4682b4"/>
</g>
</svg>